<?xml version="1.0" encoding="UTF-8"?>
<svg width="905px" height="905px" viewBox="0 0 905 905" version="1.1" xmlns="http://www.w3.org/2000/svg" xmlns:xlink="http://www.w3.org/1999/xlink">
    <!-- Generator: Sketch 64 (93537) - https://sketch.com -->
    <title>Artboard</title>
    <desc>Created with Sketch.</desc>
    <g id="Artboard" stroke="none" stroke-width="1" fill="none" fill-rule="evenodd">
        <path d="M348.6,622.516304 C251.37931,622.516304 186.310345,546.921196 186.310345,453 C186.310345,364.423913 244.489655,283.483696 347.068966,283.483696 C425.917241,283.483696 473.37931,330.826087 484.862069,393.440217 L614.234483,393.440217 C599.689655,270.502717 502.468966,172 345.537931,172 C162.57931,172 60,306.391304 60,453 C60,602.663043 167.937931,734 347.068966,734 C497.110345,734 594.331034,641.605978 615,528.595109 L483.331034,528.595109 C468.02069,581.282609 420.558621,622.516304 348.6,622.516304 Z" id="C" fill="#FFFFFF"></path>
        <polygon id="Path-3" fill="#FFFFFF" points="654 222.107122 733.623449 188 846 455.196561 732.488923 719 654.549719 685.541793 752.54781 454.496827"></polygon>
    </g>
</svg>