<?xml version="1.0" encoding="UTF-8"?>
<svg width="3396px" height="725px" viewBox="0 0 3396 725" version="1.1" xmlns="http://www.w3.org/2000/svg" xmlns:xlink="http://www.w3.org/1999/xlink">
    <!-- Generator: Sketch 64 (93537) - https://sketch.com -->
    <title>&lt;COCOA + PODS&gt;</title>
    <desc>Created with Sketch.</desc>
    <g id="Page-1" stroke="none" stroke-width="1" fill="none" fill-rule="evenodd">
        <g id="&lt;COCOA-+-PODS&gt;" fill="#000000">
            <g id="&lt;COCOA">
                <path d="M1981,0 L1981,127 L1858.85582,127 L1695,468 L1781.38781,468 L1799.7289,426.408661 L1902.52342,426.408661 L1902.52342,467.592481 L1981,467.592481 L1981,725 L0,725 L0,0 L1981,0 Z M787.74359,120 C674.230769,120 607,205.608696 607,299 C607,391.457391 672.892877,476.287048 784.352111,477.974395 L787.74359,478 L787.74359,478 C900.769231,478 968,392.391304 968,299 C968,205.608696 900.769231,120 787.74359,120 Z M413.126897,118 C296.428966,118 231,203.608696 231,297 C231,392.336957 299.846897,476 414.103448,476 C509.805517,476 571.816552,417.144022 585,345.154891 L501.016552,345.154891 C491.251034,378.717391 460.977931,404.983696 415.08,404.983696 C353.068966,404.983696 311.565517,356.828804 311.565517,297 C311.565517,240.576087 348.674483,189.016304 414.103448,189.016304 C464.395862,189.016304 494.668966,219.173913 501.993103,259.059783 L584.511724,259.059783 C575.234483,180.747283 513.223448,118 413.126897,118 Z M1172.1269,118 C1055.42897,118 990,203.608696 990,297 C990,392.336957 1058.8469,476 1173.10345,476 C1268.80552,476 1330.81655,417.144022 1344,345.154891 L1260.01655,345.154891 C1250.25103,378.717391 1219.97793,404.983696 1174.08,404.983696 C1112.06897,404.983696 1070.56552,356.828804 1070.56552,297 C1070.56552,240.576087 1107.67448,189.016304 1173.10345,189.016304 C1223.39586,189.016304 1253.66897,219.173913 1260.9931,259.059783 L1343.51172,259.059783 C1334.23448,180.747283 1272.22345,118 1172.1269,118 Z M1548.74359,118 C1435.23077,118 1368,203.608696 1368,297 C1368,389.457391 1433.89288,474.287048 1545.35211,475.974395 L1548.74359,476 L1548.74359,476 C1661.76923,476 1729,390.391304 1729,297 C1729,203.608696 1661.76923,118 1548.74359,118 Z M149.991228,129 L78,299.07992 L150.718034,467 L200.647836,445.702686 L137.867809,298.634515 L201,150.710371 L149.991228,129 Z M788,189 C849.95122,189 888,241.054054 888,297 C888,352.945946 849.95122,405 788,405 C725.560976,405 688,352.945946 688,297 C688,241.054054 725.560976,189 788,189 Z M1549,189 C1610.95122,189 1649,241.054054 1649,297 C1649,352.945946 1610.95122,405 1549,405 C1486.56098,405 1449,352.945946 1449,297 C1449,241.054054 1486.56098,189 1549,189 Z M1904,197 L1904,363 L1827,363 L1904,197 Z" id="Background"></path>
            </g>
            <g id="PODS&gt;" transform="translate(1981.000000, 118.000000)">
                <polygon id="Path-3" points="1292 32.7746032 1343.00877 11 1415 181.583115 1342.28197 350 1292.35216 328.639676 1355.13219 181.136392"></polygon>
                <path d="M142.757299,9 C218.277372,9 267,65.9957143 267,132.247143 C267,198.498571 218.277372,255.494286 142.757299,255.494286 L142.757299,255.494286 L78.9306569,255.494286 L78.9306569,350 L0,350 L0,9 Z M130.255605,73 L76,73 L76,191 L130.255605,191 C163.493274,191 185,163.694215 185,132 C185,100.305785 163.493274,73 130.255605,73 L130.255605,73 Z" id="P" stroke="#979797"></path>
                <path d="M460.244265,1 C573.582996,1 641,86.8478261 641,180.5 C641,274.152174 573.582996,360 460.244265,360 L460.244265,360 L456.843391,359.974324 C345.075406,358.282263 279,273.215652 279,180.5 C279,86.8478261 346.417004,1 460.244265,1 Z M460,72 C397.560976,72 360,124.295045 360,180.5 C360,236.704955 397.560976,289 460,289 C521.95122,289 560,236.704955 560,180.5 C560,124.295045 521.95122,72 460,72 Z" id="O" stroke="#979797"></path>
                <path d="M798.396135,9 L801.777424,9.02491102 C912.875878,10.6664183 976,93.1734143 976,179.5 C976,266.698571 912.082126,350 798.396135,350 L798.396135,350 L673,350 L673,9 L798.396135,9 Z M794.316327,77 L752,77 L752,282 L794.316327,282 C858.034014,282 895,232.214286 895,179.5 C895,126.785714 858.034014,77 794.316327,77 L794.316327,77 Z" id="D" stroke="#979797"></path>
                <path d="M993,241.057065 C993,319.100543 1047.6186,363 1123.6945,363 C1196.8444,363 1250,322.027174 1250,255.690217 C1250,185.938859 1190.50474,164.476902 1130.03416,143.502717 C1099.3112,132.771739 1081.26755,120.089674 1081.26755,98.1399457 C1081.26755,75.7024457 1100.28653,63.5081522 1122.2315,63.5081522 C1150.02846,63.5081522 1165.14611,82.53125 1165.14611,112.773098 L1244.14801,112.773098 C1244.14801,54.7282609 1203.18406,4 1123.20683,4 C1060.29791,4 1002.75332,35.2173913 1002.75332,103.017663 C1002.75332,169.35462 1057.85958,189.841033 1118.33017,212.278533 C1148.56546,223.497283 1171.48577,233.252717 1171.48577,260.080163 C1171.48577,283.980978 1152.46679,300.077446 1126.13283,300.077446 C1094.9222,300.077446 1072.0019,278.127717 1072.0019,241.057065 C1072.0019,241.057065 1072.0019,278.127717 1072.0019,241.057065 L993,241.057065 L993,241.057065 Z" id="S" stroke="#979797"></path>
            </g>
        </g>
    </g>
</svg>